<svg
        width="129"
        height="31"
        viewBox="0 0 129 31"
        fill="none"
        xmlns="http://www.w3.org/2000/svg"
>
    <path
            d="M20.6411 15.5275C20.6411 6.96814 27.5581 0 36.122 0C38.8669 0 41.447 0.713275 43.6977 1.97522L25.0329 20.6301L25.0878 20.685H27.5581L45.2898 2.96283C45.7289 3.29204 46.1681 3.67611 46.6073 4.06018L29.9736 20.685H32.5537L47.87 5.37699C48.2542 5.81593 48.5836 6.25487 48.913 6.74867L34.9692 20.685H37.5494L49.9011 8.33981C50.1756 8.88851 50.4501 9.43714 50.6696 9.98584L39.9648 20.685H42.5449L51.2187 12.0159C51.4931 13.1681 51.6029 14.3204 51.6029 15.5275C51.6029 24.0867 44.6859 31 36.0671 31C27.5581 31 20.6411 24.0867 20.6411 15.5275Z"
            fill="#CA3132"
    />
    <path
            d="M124.011 25.8425V18.9292C124.011 17.777 123.847 17.0637 123.572 16.6248C123.353 16.2407 122.859 16.0212 122.2 16.0212C121.322 16.0212 120.827 16.3504 120.499 16.8442C120.114 17.4478 119.949 18.6 119.949 20.4655V25.7876H115.612V18.9292C115.612 17.777 115.448 17.0088 115.228 16.6248C115.008 16.2407 114.46 16.0212 113.856 16.0212C113.032 16.0212 112.374 16.3504 112.099 16.8442C111.77 17.4478 111.55 18.6 111.55 20.4655V25.7876H107.213V13.1681H111.605V15.4177C112.154 14.485 112.758 13.8265 113.472 13.3876C114.185 12.9487 114.954 12.784 115.887 12.784C116.985 12.784 117.808 12.9487 118.412 13.3327C119.126 13.7717 119.565 14.3204 119.895 15.1982C120.334 14.3752 120.992 13.7168 121.651 13.3327C122.365 12.9487 123.188 12.784 124.176 12.784C124.89 12.784 125.549 12.8389 126.098 13.1681C126.702 13.3876 127.195 13.7717 127.58 14.2655C127.909 14.7044 128.129 15.1982 128.294 15.7469C128.348 16.2956 128.459 17.1186 128.459 18.3805V18.6V25.8425H124.011Z"
            fill="#303030"
    />
    <path
            d="M106.225 13.1681V19.6425C106.225 21.0142 106.17 22.1115 105.896 22.8248C105.676 23.5381 105.292 24.1416 104.743 24.6902C104.194 25.2389 103.536 25.6779 102.657 25.8973C101.779 26.2265 100.791 26.3363 99.638 26.3363C98.5396 26.3363 97.5516 26.1717 96.7284 25.8973C95.9596 25.6779 95.1908 25.184 94.642 24.6902C94.0932 24.1416 93.7085 23.5381 93.4892 22.8248C93.2693 22.1115 93.1052 21.069 93.1052 19.6425V13.1681H97.442V19.9717C97.442 20.9593 97.6068 21.7275 97.9908 22.2212C98.3204 22.7699 98.9236 22.9894 99.6924 22.9894C100.461 22.9894 101.01 22.7699 101.394 22.2761C101.724 21.8371 101.944 21.069 101.944 19.9717V13.1681H106.225Z"
            fill="#303030"
    />
    <path
            d="M82.8389 25.8425V13.1681H87.066V16.1858C87.5052 15.0885 88.0548 14.2655 88.8228 13.7168C89.5916 13.1681 90.5244 12.8389 91.5132 12.8389C91.7324 12.8389 91.8972 12.8389 92.062 12.8938C92.2812 12.8938 92.446 12.8938 92.6108 12.8938L92.2268 17.0088C91.8972 16.954 91.678 16.8442 91.458 16.7894C91.1284 16.7894 90.9092 16.7894 90.6892 16.7894C89.5916 16.7894 88.7684 17.1186 88.1644 17.777C87.6156 18.3805 87.3404 19.3133 87.3404 20.5204V25.7876H82.8389V25.8425Z"
            fill="#303030"
    />
    <path
            d="M76.1412 25.8425V16.3504H74.2751V13.1681H76.1412V9.3823H80.5332V13.1681H82.4548V16.3504H80.5332V25.8425H76.1412Z"
            fill="#303030"
    />
    <path
            d="M57.8064 25.4584L50.1758 7.13275H55.5007L59.1239 17.3929C59.1789 17.5575 59.2886 17.777 59.3435 18.1611C59.3985 18.6 59.5631 19.1487 59.7278 19.8619C59.8925 19.3133 60.0572 18.7646 60.1121 18.3256C60.2768 17.9416 60.3317 17.6124 60.3317 17.3929L64.0097 7.13275H69.3347L61.6492 25.4584H57.8064Z"
            fill="#303030"
    />
    <path
            d="M14.6572 9.49205C14.6572 8.77876 14.8768 8.17522 15.4258 7.73627C15.865 7.29735 16.4139 7.02301 17.1276 7.02301C17.8413 7.02301 18.4451 7.24248 18.8843 7.73627C19.3234 8.17522 19.5979 8.8336 19.5979 9.49205C19.5979 10.2053 19.3784 10.6991 18.8843 11.2478C18.4451 11.6867 17.7863 11.9611 17.1276 11.9611C16.4139 11.9611 15.9199 11.7416 15.4258 11.1929C14.8768 10.6991 14.6572 10.0956 14.6572 9.49205Z"
            fill="#303030"
    />
    <path d="M15.0415 25.4584V12.784H19.4881V25.4584H15.0415Z" fill="#303030" />
    <path
            d="M69.2249 9.49205C69.2249 8.77876 69.4445 8.17522 69.9385 7.73627C70.4875 7.29735 71.0364 7.02301 71.6952 7.02301C72.4089 7.02301 73.0128 7.24248 73.452 7.73627C73.8911 8.17522 74.1656 8.8336 74.1656 9.49205C74.1656 10.2053 73.946 10.6991 73.452 11.2478C72.903 11.6867 72.354 11.9611 71.6952 11.9611C70.9816 11.9611 70.4326 11.7416 69.9385 11.1929C69.4445 10.6991 69.2249 10.0956 69.2249 9.49205Z"
            fill="#303030"
    />
    <path d="M69.4446 25.8425V13.1681H73.8912V25.8425H69.4446Z" fill="#303030" />
    <path
            d="M6.6974 25.4584H5.16029H0V7.07788H4.9956H6.6974C7.85021 7.13274 8.78348 7.13274 9.33244 7.29735C10.1559 7.35222 10.8696 7.62651 11.4734 8.01062C12.1871 8.33981 12.6263 8.8336 13.0105 9.49205C13.3399 10.0956 13.5595 10.8637 13.5595 11.7416C13.5595 12.7292 13.2301 13.6071 12.736 14.2106C12.2419 14.8142 11.4185 15.3079 10.2657 15.5823C11.5283 15.6371 12.5714 16.131 13.285 16.954C14.0535 17.7221 14.4379 18.8743 14.4379 20.1912C14.4379 21.1788 14.2183 22.0566 13.7242 22.8248C13.3399 23.5381 12.736 24.1416 11.9675 24.5256C11.3636 24.9098 10.5951 25.1292 9.6618 25.2389C9.00308 25.3487 8.01493 25.4584 6.6974 25.4584ZM6.6974 17.7221H6.47781H4.61132V21.7275H6.36802H6.6974C7.68557 21.6725 8.45412 21.5079 8.83836 21.2885C9.38732 20.9593 9.60692 20.5204 9.60692 19.8071C9.60692 19.0389 9.38732 18.4902 8.89324 18.216C8.56388 17.8867 7.79533 17.7221 6.6974 17.7221ZM4.61132 14.4301H5.59946H6.6974C7.41106 14.3752 7.85021 14.2106 8.17964 14.046C8.61876 13.7168 8.89324 13.2779 8.89324 12.6743C8.89324 11.9611 8.67372 11.4673 8.17964 11.1929C7.96004 10.9735 7.41106 10.8637 6.6974 10.8089C6.36802 10.754 6.09353 10.754 5.70926 10.754H4.61132V14.4301Z"
            fill="#303030"
    />
</svg>
